<svg xmlns="http://www.w3.org/2000/svg" version="1.1" xmlns:xlink="http://www.w3.org/1999/xlink" xmlns:svgjs="http://svgjs.dev/svgjs" width="1000" height="803" viewBox="0 0 1000 803"><g transform="matrix(1,0,0,1,0,0.2655284571491734)"><svg viewBox="0 0 448 360" data-background-color="#ffffff" preserveAspectRatio="xMidYMid meet" height="803" width="1000" xmlns="http://www.w3.org/2000/svg" xmlns:xlink="http://www.w3.org/1999/xlink"><g id="tight-bounds" transform="matrix(1,0,0,1,0,-0.11904140046539169)"><svg viewBox="0 0 448 360" height="360" width="448"><rect width="448" height="360.2380828009308" fill="url(#6f49c259-af4e-4ffb-9e25-4a235eede56f)" mask="url(#ca970dc8-d21c-4b00-ae4a-6d93ce188410)" data-fill-palette-color="tertiary"></rect><g><svg></svg></g><g><svg viewBox="0 0 448 360" height="360" width="448"><g><path transform="translate(36.9151,-7.08178) scale(0.00624,0.00624)" d="M25167 8301c221 0 400 179 400 400 0 221-179 400-400 400h-3824l-2753 2753c-156 156-409 156-566 0-156-156-156-409 0-566l2188-2188h-6475c-1847 0-3071 431-3819 1301-760 885-1068 2254-1068 4110 0 11 0 22-1 33l34 5884 2356-2356c156-156 409-156 566 0 156 156 156 409 0 566l-2915 2915c33 5746 31 11443-2 17189 4087 4041 8117 8068 12157 12154h4070c221 0 400 179 400 400 0 221-179 400-400 400h-3279l4160 4208 1-1c1313 1313 2498 2062 3660 2151 1146 87 2316-474 3622-1779l4579-4579h-3323c-221 0-400-179-400-400 0-221 179-400 400-400h4123l2666-2666c156-156 409-156 566 0 156 156 156 409 0 566l-2101 2101h6475c1847 0 3071-431 3819-1301 760-885 1068-2254 1068-4110h2l-34-5917-2568 2568c-156 156-409 156-566 0-156-156-156-409 0-566l3127-3127c-33-5746-31-11443 2-17189-4087-4041-8117-8068-12157-12154h-4193c-221 0-400-179-400-400 0-221 179-400 400-400h3402l-4141-4189c-7-6-13-12-20-18-1313-1313-2498-2062-3660-2151-1146-87-2316 474-3622 1779l-4579 4579h3024zM13737 8301h7275l5144-5144c1483-1483 2856-2116 4247-2010 1374 104 2719 934 4167 2382 8 8 15 15 22 23l4695 4749h6977c2096 0 3515 524 4425 1583 898 1045 1261 2582 1261 4629 0 13-1 25-2 37l-36 6373 4559 4508 1-1c1448 1448 2278 2792 2382 4167 106 1391-528 2764-2010 4247l-4934 4934 38 6710h2c0 2047-364 3584-1261 4629-910 1059-2329 1583-4425 1583h-7275l-5144 5144c-1483 1483-2856 2116-4247 2010-1374-104-2719-934-4167-2382l1-1-4718-4772h-6977c-2096 0-3515-524-4425-1583-898-1045-1261-2582-1261-4629h2l37-6410-4537-4485c-8-7-16-14-23-22-1448-1448-2278-2792-2382-4167-106-1391 528-2764 2010-4247l4934-4934-38-6672c-1-12-2-25-2-37 0-2047 364-3584 1261-4629 910-1059 2329-1583 4425-1583zM8141 30000l-44-7653-4374 4374c-1305 1305-1866 2476-1779 3622 88 1162 838 2348 2151 3660 6 6 13 13 18 20l3983 3937 45-7961zM8882 39860l-32 5627h2c0 1857 308 3226 1068 4110 748 871 1972 1301 3819 1301h6186l-5380-5442-5662-5597zM46264 9101h-6186l5380 5442 5662 5597 32-5594c-1-11-1-22-1-33 0-1857-308-3226-1068-4110-748-871-1972-1301-3819-1301zM51906 22039l-45 7961 44 7653 4374-4374c1305-1305 1866-2476 1779-3622-88-1163-838-2348-2151-3660l1-1-4002-3956z" fill="url(#6f49c259-af4e-4ffb-9e25-4a235eede56f)" fill-rule="nonzero" stroke="none" stroke-width="1" stroke-linecap="butt" stroke-linejoin="miter" stroke-miterlimit="10" stroke-dasharray="" stroke-dashoffset="0" font-family="none" font-weight="none" font-size="none" text-anchor="none" style="mix-blend-mode: normal" data-fill-palette-color="tertiary"></path></g><g transform="matrix(1,0,0,1,141.96827474865717,90)"><svg viewBox="0 0 164.0634505026857 180" height="180" width="164.0634505026857"><g><svg viewBox="0 0 178.88760000000002 196.26411550738962" height="180" width="164.0634505026857"><g><svg viewBox="0 0 178.88760000000002 196.26411550738962" height="196.26411550738962" width="178.88760000000002"><g id="textblocktransform"><svg viewBox="0 0 178.88760000000002 196.26411550738962" height="196.26411550738962" width="178.88760000000002" id="textblock"><g><svg viewBox="0 0 178.88760000000002 178.88760000000002" height="178.88760000000002" width="178.88760000000002"><g transform="matrix(1,0,0,1,47.27958832327113,47.27958832327113)"><svg viewBox="0 0 84.32842335345777 84.32842335345777" height="84.32842335345777" width="84.32842335345777"><g><svg xmlns="http://www.w3.org/2000/svg" xmlns:xlink="http://www.w3.org/1999/xlink" version="1.1" x="0" y="0" viewBox="0 0 100 100" style="enable-background:new 0 0 100 100;" xml:space="preserve" height="84.32842335345777" width="84.32842335345777" class="icon-kg-0" data-fill-palette-color="accent" id="kg-0"></svg></g></svg></g><g></g></svg></g><g transform="matrix(1,0,0,1,44.721900000000005,189.1086115073896)"><svg viewBox="0 0 89.44380000000001 7.155504" height="7.155504" width="89.44380000000001"><g transform="matrix(1,0,0,1,0,0)"><svg width="89.44380000000001" viewBox="2.05 -35.5 449.94 36" height="7.155504" data-palette-color="url(#5ca80ea9-32a9-45db-b964-d8a45e3dc79e)"></svg></g></svg></g></svg></g></svg></g><g></g></svg></g></svg></g></svg></g><defs></defs><mask id="92809419-263c-498b-956f-cf144b98ac69"><g id="SvgjsG1326"><svg viewBox="0 0 448 360" height="360" width="448"><g><svg></svg></g><g><svg viewBox="0 0 448 360" height="360" width="448"><g></g><g transform="matrix(1,0,0,1,141.96827474865717,90)"><svg viewBox="0 0 164.0634505026857 180" height="180" width="164.0634505026857"><g><svg viewBox="0 0 178.88760000000002 196.26411550738962" height="180" width="164.0634505026857"><g><svg viewBox="0 0 178.88760000000002 196.26411550738962" height="196.26411550738962" width="178.88760000000002"><g id="SvgjsG1325"><svg viewBox="0 0 178.88760000000002 196.26411550738962" height="196.26411550738962" width="178.88760000000002" id="SvgjsSvg1324"><g><svg viewBox="0 0 178.88760000000002 178.88760000000002" height="178.88760000000002" width="178.88760000000002"><g transform="matrix(1,0,0,1,47.27958832327113,47.27958832327113)"><svg viewBox="0 0 84.32842335345777 84.32842335345777" height="84.32842335345777" width="84.32842335345777"><g><svg xmlns="http://www.w3.org/2000/svg" xmlns:xlink="http://www.w3.org/1999/xlink" version="1.1" x="0" y="0" viewBox="0 0 100 100" style="enable-background:new 0 0 100 100;" xml:space="preserve" height="84.32842335345777" width="84.32842335345777" class="icon-kg-0" data-fill-palette-color="accent" id="SvgjsSvg1323"></svg></g></svg></g><g><path d="M3.256 63.971v0l3.454-8.636 3.015 1.206-2.07 5.176 3.154 1.261 2.07-5.176 3.117 1.247-2.071 5.176 6.058 2.423-1.384 3.46zM18.124 48.483v0l-5.631-2.252-3.093 2.379-2.207 5.519 3.015 1.206 2.07-5.176 3.154 1.261-2.071 5.176 3.117 1.247 2.208-5.519z" fill="white"></path><path d="M16.913 37.084v0l6.029-6.939 2.564 2.228-3.656 4.208 2.451 2.13 3.656-4.209 2.534 2.202-3.656 4.208 4.925 4.279-2.372 2.73zM42.368 32.981v0l-5.159-4.482-2.832 1.112 0.789-2.888-3.771-3.276-3.723 1.253-3.885 4.472 2.564 2.228 3.735-4.299 2.451 2.13-3.735 4.298 2.534 2.202 3.735-4.299 4.925 4.279z" fill="white"></path><path d="M38.744 18.492v0l1.915-3.409 5.143-2.981 1.629 2.809-4.927 2.856 4.976 8.583 4.823-2.796 1.683 2.904-5.039 2.921-3.895-0.005zM55.866 8.565v0l-3.806-0.091-5.143 2.981 1.629 2.809 4.823-2.796 4.975 8.583-4.823 2.796 1.684 2.904 5.143-2.981 1.827-3.323z" fill="white"></path><path d="M66.415 3.548v0l3.214-0.585 6.828 4.422 0.779 4.276-6.428-4.181 2.128 11.677-3.558 0.648zM85.886 0v0l-3.194 0.582-4.849 6.55 0.779 4.276 4.541-6.179 2.128 11.676 3.558-0.648z" fill="white"></path><path d="M98.583 1.03v0l9.152 1.66-0.579 3.195-5.486-0.995-0.606 3.342 5.485 0.995-0.599 3.303-5.485-0.995-1.165 6.419-3.667-0.665zM116.728 12.505v0l1.082-5.967-2.948-2.555-5.849-1.061-0.579 3.195 5.485 0.995-0.606 3.342-5.486-0.995-0.599 3.303 5.849 1.061z" fill="white"></path><path d="M143.138 17.805l-1.599 2.826-7.209-4.077-6.536 11.557-3.444-1.947 6.536-11.558-6.583-3.723 1.599-2.826z" fill="white"></path><path d="M150.741 24.563v0l2.457 2.654-9.664 8.945 3.706 4.003-2.464 2.28-6.162-6.657zM148.278 41.287v0l-2.463 2.28 6.244 6.745 2.463-2.28z" fill="white"></path><path d="M173.719 60.445l-10.785-3.839-6.745 3.4-1.461-2.9 6.745-3.4 3.333-10.944 2.429 2.445-2.643 8.74v0l8.62 3.117z" fill="white"></path><path d="M22.178 111.14v0l3.454 8.636-3.015 1.206-2.07-5.176-3.154 1.262 2.07 5.176-3.116 1.246-2.071-5.176-6.057 2.423-1.384-3.46zM22.092 132.609v0l5.631-2.252 0.599-3.856-2.208-5.519-3.014 1.206 2.07 5.176-3.154 1.262-2.07-5.176-3.117 1.246 2.208 5.52z" fill="white"></path><path d="M32.298 132.23v0l6.028 6.939-2.564 2.228-3.657-4.209-2.451 2.13 3.656 4.208-2.534 2.202-3.656-4.209-4.925 4.279-2.372-2.73zM32.803 158.009v0l5.159-4.482-0.706-2.96 2.75 1.184 3.771-3.276-0.72-3.861-3.886-4.472-2.564 2.228 3.735 4.299-2.451 2.129-3.735-4.299-2.534 2.202 3.734 4.299-4.925 4.279z" fill="white"></path><path d="M46.97 149.997v0l3.91-0.031 5.143 2.981-1.628 2.809-4.927-2.856-4.976 8.583 4.823 2.796-1.684 2.904-5.039-2.921-1.93-3.383zM64.093 159.924v0l-1.812-3.349-5.143-2.981-1.628 2.809 4.823 2.796-4.976 8.583-4.823-2.796-1.684 2.904 5.143 2.981 3.791-0.065z" fill="white"></path><path d="M70.069 159.082v0l3.214 0.586 4.829 6.547-0.78 4.275-4.54-6.179-2.128 11.677-3.558-0.649zM89.54 162.631v0l-3.195-0.583-6.847 4.419-0.78 4.276 6.429-4.181-2.128 11.677 3.558 0.649z" fill="white"></path><path d="M94.945 161.598v0l9.152-1.66 0.58 3.195-5.485 0.995 0.606 3.342 5.485-0.995 0.6 3.303-5.486 0.995 1.165 6.419-3.667 0.665zM115.965 165.969v0l-1.083-5.967-3.658-1.357-5.849 1.061 0.58 3.195 5.485-0.995 0.607 3.342-5.486 0.995 0.6 3.303 5.849-1.061z" fill="white"></path><path d="M133.105 147.136l1.599 2.826-7.21 4.078 6.537 11.557-3.444 1.948-6.536-11.558-6.583 3.723-1.599-2.826z" fill="white"></path><path d="M135.786 144.273v0l2.456-2.654 9.664 8.945 3.705-4.003 2.464 2.28-6.163 6.657zM152.65 145.439v0l2.463 2.28 6.244-6.745-2.464-2.28z" fill="white"></path><path d="M157.43 114.024l3.329 10.953 6.745 3.4-1.462 2.9-6.745-3.4-10.78 3.829 0.52-3.407 8.598-3.073v0l-2.621-8.784z" fill="white"></path><path d="M2.706 91.34c0-3.486 2.826-6.311 6.311-6.311 3.486 0 6.311 2.826 6.311 6.311 0 3.486-2.826 6.311-6.311 6.311-3.486 0-6.311-2.826-6.311-6.311z" fill="white"></path><path d="M163.559 91.34c0-3.486 2.826-6.311 6.311-6.311 3.486 0 6.311 2.826 6.312 6.311 0 3.486-2.826 6.311-6.312 6.311-3.486 0-6.311-2.826-6.311-6.311z" fill="white"></path></g></svg></g><g transform="matrix(1,0,0,1,44.721900000000005,189.1086115073896)"><svg viewBox="0 0 89.44380000000001 7.155504" height="7.155504" width="89.44380000000001"><g transform="matrix(1,0,0,1,0,0)"><svg width="89.44380000000001" viewBox="2.05 -35.5 449.94 36" height="7.155504" data-palette-color="url(#5ca80ea9-32a9-45db-b964-d8a45e3dc79e)"></svg></g></svg></g></svg></g></svg></g><g></g></svg></g></svg></g></svg></g><defs><mask></mask></defs></svg></g></mask><linearGradient x1="0.054" x2="0.941" y1="0.5" y2="0.5" id="d57e04de-9029-4f78-96b5-182d31e9c16a"><stop stop-color="#0f3054" offset="0"></stop><stop stop-color="#3b8dcb" offset="0.498"></stop><stop stop-color="#0f3054" offset="1"></stop></linearGradient><rect width="448" height="360.2380828009308" fill="url(#d57e04de-9029-4f78-96b5-182d31e9c16a)" mask="url(#92809419-263c-498b-956f-cf144b98ac69)" data-fill-palette-color="primary"></rect><mask id="39dcb631-a8a8-4950-8d31-2f8df5b8b06d"><g id="SvgjsG1335"><svg viewBox="0 0 448 360" height="360" width="448"><g><svg></svg></g><g><svg viewBox="0 0 448 360" height="360" width="448"><g></g><g transform="matrix(1,0,0,1,141.96827474865717,90)"><svg viewBox="0 0 164.0634505026857 180" height="180" width="164.0634505026857"><g><svg viewBox="0 0 178.88760000000002 196.26411550738962" height="180" width="164.0634505026857"><g><svg viewBox="0 0 178.88760000000002 196.26411550738962" height="196.26411550738962" width="178.88760000000002"><g id="SvgjsG1334"><svg viewBox="0 0 178.88760000000002 196.26411550738962" height="196.26411550738962" width="178.88760000000002" id="SvgjsSvg1333"><g><svg viewBox="0 0 178.88760000000002 178.88760000000002" height="178.88760000000002" width="178.88760000000002"><g transform="matrix(1,0,0,1,47.27958832327113,47.27958832327113)"><svg viewBox="0 0 84.32842335345777 84.32842335345777" height="84.32842335345777" width="84.32842335345777"><g><svg xmlns="http://www.w3.org/2000/svg" xmlns:xlink="http://www.w3.org/1999/xlink" version="1.1" x="0" y="0" viewBox="0 0 100 100" style="enable-background:new 0 0 100 100;" xml:space="preserve" height="84.32842335345777" width="84.32842335345777" class="icon-kg-0" data-fill-palette-color="accent" id="SvgjsSvg1332"></svg></g></svg></g><g></g></svg></g><g transform="matrix(1,0,0,1,44.721900000000005,189.1086115073896)"><svg viewBox="0 0 89.44380000000001 7.155504" height="7.155504" width="89.44380000000001"><g transform="matrix(1,0,0,1,0,0)"><svg width="89.44380000000001" viewBox="2.05 -35.5 449.94 36" height="7.155504" data-palette-color="url(#5ca80ea9-32a9-45db-b964-d8a45e3dc79e)"><path d="M2.05 0L2.05-35 10.45-35Q14.55-35 16.6-32.8 18.65-30.6 18.65-26.35L18.65-26.35 18.65-8.65Q18.65-4.4 16.6-2.2 14.55 0 10.45 0L10.45 0 2.05 0ZM7.55-5L10.35-5Q11.7-5 12.43-5.8 13.15-6.6 13.15-8.4L13.15-8.4 13.15-26.6Q13.15-28.4 12.43-29.2 11.7-30 10.35-30L10.35-30 7.55-30 7.55-5ZM22.35 0L22.35-35 27.85-35 27.85 0 22.35 0ZM39.09 0.5Q35.09 0.5 33.05-1.78 31-4.05 31-8.3L31-8.3 31-10.3 36.2-10.3 36.2-7.9Q36.2-4.5 39.05-4.5L39.05-4.5Q40.45-4.5 41.17-5.33 41.89-6.15 41.89-8L41.89-8Q41.89-10.2 40.89-11.88 39.89-13.55 37.2-15.9L37.2-15.9Q33.8-18.9 32.45-21.33 31.09-23.75 31.09-26.8L31.09-26.8Q31.09-30.95 33.2-33.23 35.3-35.5 39.3-35.5L39.3-35.5Q43.25-35.5 45.27-33.23 47.3-30.95 47.3-26.7L47.3-26.7 47.3-25.25 42.09-25.25 42.09-27.05Q42.09-28.85 41.39-29.68 40.7-30.5 39.34-30.5L39.34-30.5Q36.59-30.5 36.59-27.15L36.59-27.15Q36.59-25.25 37.62-23.6 38.64-21.95 41.34-19.6L41.34-19.6Q44.8-16.6 46.09-14.15 47.39-11.7 47.39-8.4L47.39-8.4Q47.39-4.1 45.27-1.8 43.14 0.5 39.09 0.5L39.09 0.5ZM58.29 0.5Q54.34 0.5 52.27-1.75 50.19-4 50.19-8.1L50.19-8.1 50.19-26.9Q50.19-31 52.27-33.25 54.34-35.5 58.29-35.5L58.29-35.5Q62.24-35.5 64.32-33.25 66.39-31 66.39-26.9L66.39-26.9 66.39-23.2 61.19-23.2 61.19-27.25Q61.19-30.5 58.44-30.5L58.44-30.5Q55.69-30.5 55.69-27.25L55.69-27.25 55.69-7.7Q55.69-4.5 58.44-4.5L58.44-4.5Q61.19-4.5 61.19-7.7L61.19-7.7 61.19-13.05 66.39-13.05 66.39-8.1Q66.39-4 64.32-1.75 62.24 0.5 58.29 0.5L58.29 0.5ZM77.74 0.5Q73.69 0.5 71.54-1.8 69.39-4.1 69.39-8.3L69.39-8.3 69.39-26.7Q69.39-30.9 71.54-33.2 73.69-35.5 77.74-35.5L77.74-35.5Q81.79-35.5 83.94-33.2 86.09-30.9 86.09-26.7L86.09-26.7 86.09-8.3Q86.09-4.1 83.94-1.8 81.79 0.5 77.74 0.5L77.74 0.5ZM77.74-4.5Q80.59-4.5 80.59-7.95L80.59-7.95 80.59-27.05Q80.59-30.5 77.74-30.5L77.74-30.5Q74.89-30.5 74.89-27.05L74.89-27.05 74.89-7.95Q74.89-4.5 77.74-4.5L77.74-4.5ZM93.54 0L88.24-35 93.79-35 97.39-7.85 97.49-7.85 101.09-35 106.14-35 100.84 0 93.54 0ZM108.79 0L108.79-35 123.79-35 123.79-30 114.29-30 114.29-20.75 121.84-20.75 121.84-15.75 114.29-15.75 114.29-5 123.79-5 123.79 0 108.79 0ZM126.93 0L126.93-35 135.08-35Q139.33-35 141.28-33.02 143.23-31.05 143.23-26.95L143.23-26.95 143.23-24.8Q143.23-19.35 139.63-17.9L139.63-17.9 139.63-17.8Q141.63-17.2 142.46-15.35 143.28-13.5 143.28-10.4L143.28-10.4 143.28-4.25Q143.28-2.75 143.38-1.83 143.48-0.9 143.88 0L143.88 0 138.28 0Q137.98-0.85 137.88-1.6 137.78-2.35 137.78-4.3L137.78-4.3 137.78-10.7Q137.78-13.1 137.01-14.05 136.23-15 134.33-15L134.33-15 132.43-15 132.43 0 126.93 0ZM132.43-20L134.43-20Q136.08-20 136.91-20.85 137.73-21.7 137.73-23.7L137.73-23.7 137.73-26.4Q137.73-28.3 137.06-29.15 136.38-30 134.93-30L134.93-30 132.43-30 132.43-20ZM153.63 0L159.33-35 166.78-35 172.48 0 166.98 0 165.98-6.95 165.98-6.85 159.73-6.85 158.73 0 153.63 0ZM160.38-11.6L165.33-11.6 162.88-28.9 162.78-28.9 160.38-11.6ZM175.13 0L175.13-35 182.03-35 187.38-14.05 187.48-14.05 187.48-35 192.38-35 192.38 0 186.73 0 180.13-25.55 180.03-25.55 180.03 0 175.13 0ZM196.47 0L196.47-35 204.87-35Q208.97-35 211.02-32.8 213.07-30.6 213.07-26.35L213.07-26.35 213.07-8.65Q213.07-4.4 211.02-2.2 208.97 0 204.87 0L204.87 0 196.47 0ZM201.97-5L204.77-5Q206.12-5 206.85-5.8 207.57-6.6 207.57-8.4L207.57-8.4 207.57-26.6Q207.57-28.4 206.85-29.2 206.12-30 204.77-30L204.77-30 201.97-30 201.97-5ZM231.92 0.5Q227.92 0.5 225.87-1.78 223.82-4.05 223.82-8.3L223.82-8.3 223.82-10.3 229.02-10.3 229.02-7.9Q229.02-4.5 231.87-4.5L231.87-4.5Q233.27-4.5 233.99-5.33 234.72-6.15 234.72-8L234.72-8Q234.72-10.2 233.72-11.88 232.72-13.55 230.02-15.9L230.02-15.9Q226.62-18.9 225.27-21.33 223.92-23.75 223.92-26.8L223.92-26.8Q223.92-30.95 226.02-33.23 228.12-35.5 232.12-35.5L232.12-35.5Q236.07-35.5 238.09-33.23 240.12-30.95 240.12-26.7L240.12-26.7 240.12-25.25 234.92-25.25 234.92-27.05Q234.92-28.85 234.22-29.68 233.52-30.5 232.17-30.5L232.17-30.5Q229.42-30.5 229.42-27.15L229.42-27.15Q229.42-25.25 230.44-23.6 231.47-21.95 234.17-19.6L234.17-19.6Q237.62-16.6 238.92-14.15 240.22-11.7 240.22-8.4L240.22-8.4Q240.22-4.1 238.09-1.8 235.97 0.5 231.92 0.5L231.92 0.5ZM243.37 0L243.37-35 248.87-35 248.87-20.75 254.77-20.75 254.77-35 260.27-35 260.27 0 254.77 0 254.77-15.75 248.87-15.75 248.87 0 243.37 0ZM262.91 0L268.61-35 276.06-35 281.76 0 276.26 0 275.26-6.95 275.26-6.85 269.01-6.85 268.01 0 262.91 0ZM269.66-11.6L274.61-11.6 272.16-28.9 272.06-28.9 269.66-11.6ZM284.41 0L284.41-35 292.56-35Q296.81-35 298.76-33.02 300.71-31.05 300.71-26.95L300.71-26.95 300.71-24.8Q300.71-19.35 297.11-17.9L297.11-17.9 297.11-17.8Q299.11-17.2 299.94-15.35 300.76-13.5 300.76-10.4L300.76-10.4 300.76-4.25Q300.76-2.75 300.86-1.83 300.96-0.9 301.36 0L301.36 0 295.76 0Q295.46-0.85 295.36-1.6 295.26-2.35 295.26-4.3L295.26-4.3 295.26-10.7Q295.26-13.1 294.49-14.05 293.71-15 291.81-15L291.81-15 289.91-15 289.91 0 284.41 0ZM289.91-20L291.91-20Q293.56-20 294.39-20.85 295.21-21.7 295.21-23.7L295.21-23.7 295.21-26.4Q295.21-28.3 294.54-29.15 293.86-30 292.41-30L292.41-30 289.91-30 289.91-20ZM304.56 0L304.56-35 319.56-35 319.56-30 310.06-30 310.06-20.75 317.61-20.75 317.61-15.75 310.06-15.75 310.06-5 319.56-5 319.56 0 304.56 0ZM330.7 0L330.7-35 338.8-35Q342.9-35 344.95-32.8 347-30.6 347-26.35L347-26.35 347-22.9Q347-18.65 344.95-16.45 342.9-14.25 338.8-14.25L338.8-14.25 336.2-14.25 336.2 0 330.7 0ZM336.2-19.25L338.8-19.25Q340.15-19.25 340.83-20 341.5-20.75 341.5-22.55L341.5-22.55 341.5-26.7Q341.5-28.5 340.83-29.25 340.15-30 338.8-30L338.8-30 336.2-30 336.2-19.25ZM350 0L350-35 358.15-35Q362.4-35 364.35-33.02 366.3-31.05 366.3-26.95L366.3-26.95 366.3-24.8Q366.3-19.35 362.7-17.9L362.7-17.9 362.7-17.8Q364.7-17.2 365.53-15.35 366.35-13.5 366.35-10.4L366.35-10.4 366.35-4.25Q366.35-2.75 366.45-1.83 366.55-0.9 366.95 0L366.95 0 361.35 0Q361.05-0.85 360.95-1.6 360.85-2.35 360.85-4.3L360.85-4.3 360.85-10.7Q360.85-13.1 360.08-14.05 359.3-15 357.4-15L357.4-15 355.5-15 355.5 0 350 0ZM355.5-20L357.5-20Q359.15-20 359.98-20.85 360.8-21.7 360.8-23.7L360.8-23.7 360.8-26.4Q360.8-28.3 360.13-29.15 359.45-30 358-30L358-30 355.5-30 355.5-20ZM378.1 0.5Q374.05 0.5 371.9-1.8 369.75-4.1 369.75-8.3L369.75-8.3 369.75-26.7Q369.75-30.9 371.9-33.2 374.05-35.5 378.1-35.5L378.1-35.5Q382.15-35.5 384.3-33.2 386.45-30.9 386.45-26.7L386.45-26.7 386.45-8.3Q386.45-4.1 384.3-1.8 382.15 0.5 378.1 0.5L378.1 0.5ZM378.1-4.5Q380.95-4.5 380.95-7.95L380.95-7.95 380.95-27.05Q380.95-30.5 378.1-30.5L378.1-30.5Q375.25-30.5 375.25-27.05L375.25-27.05 375.25-7.95Q375.25-4.5 378.1-4.5L378.1-4.5ZM390.15 0L390.15-35 398-35 401.5-9.95 401.6-9.95 405.1-35 412.95-35 412.95 0 407.75 0 407.75-26.5 407.65-26.5 403.65 0 399.05 0 395.05-26.5 394.95-26.5 394.95 0 390.15 0ZM417.04 0L417.04-35 425.14-35Q429.24-35 431.29-32.8 433.34-30.6 433.34-26.35L433.34-26.35 433.34-22.9Q433.34-18.65 431.29-16.45 429.24-14.25 425.14-14.25L425.14-14.25 422.54-14.25 422.54 0 417.04 0ZM422.54-19.25L425.14-19.25Q426.49-19.25 427.17-20 427.84-20.75 427.84-22.55L427.84-22.55 427.84-26.7Q427.84-28.5 427.17-29.25 426.49-30 425.14-30L425.14-30 422.54-30 422.54-19.25ZM440.74 0L440.74-30 434.99-30 434.99-35 451.99-35 451.99-30 446.24-30 446.24 0 440.74 0Z" opacity="1" transform="matrix(1,0,0,1,0,0)" fill="white" class="slogan-text-1" id="SvgjsPath1331"></path></svg></g></svg></g></svg></g></svg></g><g></g></svg></g></svg></g></svg></g><defs><mask></mask></defs><mask><g id="SvgjsG1330"><svg viewBox="0 0 448 360" height="360" width="448"><g><svg></svg></g><g><svg viewBox="0 0 448 360" height="360" width="448"><g></g><g transform="matrix(1,0,0,1,141.96827474865717,90)"><svg viewBox="0 0 164.0634505026857 180" height="180" width="164.0634505026857"><g><svg viewBox="0 0 178.88760000000002 196.26411550738962" height="180" width="164.0634505026857"><g><svg viewBox="0 0 178.88760000000002 196.26411550738962" height="196.26411550738962" width="178.88760000000002"><g id="SvgjsG1329"><svg viewBox="0 0 178.88760000000002 196.26411550738962" height="196.26411550738962" width="178.88760000000002" id="SvgjsSvg1328"><g><svg viewBox="0 0 178.88760000000002 178.88760000000002" height="178.88760000000002" width="178.88760000000002"><g transform="matrix(1,0,0,1,47.27958832327113,47.27958832327113)"><svg viewBox="0 0 84.32842335345777 84.32842335345777" height="84.32842335345777" width="84.32842335345777"><g><svg xmlns="http://www.w3.org/2000/svg" xmlns:xlink="http://www.w3.org/1999/xlink" version="1.1" x="0" y="0" viewBox="0 0 100 100" style="enable-background:new 0 0 100 100;" xml:space="preserve" height="84.32842335345777" width="84.32842335345777" class="icon-kg-0" data-fill-palette-color="accent" id="SvgjsSvg1327"></svg></g></svg></g><g></g></svg></g><g transform="matrix(1,0,0,1,44.721900000000005,189.1086115073896)"><svg viewBox="0 0 89.44380000000001 7.155504" height="7.155504" width="89.44380000000001"><g transform="matrix(1,0,0,1,0,0)"><svg width="89.44380000000001" viewBox="2.05 -35.5 449.94 36" height="7.155504" data-palette-color="url(#5ca80ea9-32a9-45db-b964-d8a45e3dc79e)"></svg></g></svg></g></svg></g></svg></g><g></g></svg></g></svg></g></svg></g><defs><mask></mask></defs></svg></g></mask></svg></g></mask><linearGradient x1="0.054" x2="0.941" y1="0.5" y2="0.5" id="5ca80ea9-32a9-45db-b964-d8a45e3dc79e"><stop stop-color="#0f3054" offset="0"></stop><stop stop-color="#3b8dcb" offset="0.498"></stop><stop stop-color="#0f3054" offset="1"></stop></linearGradient><rect width="448" height="360.2380828009308" fill="url(#5ca80ea9-32a9-45db-b964-d8a45e3dc79e)" mask="url(#39dcb631-a8a8-4950-8d31-2f8df5b8b06d)" data-fill-palette-color="secondary"></rect><mask id="0b24f243-cc8c-4379-81c8-272cce351483"><g id="SvgjsG1352"><svg viewBox="0 0 448 360" height="360" width="448"><g><svg></svg></g><g><svg viewBox="0 0 448 360" height="360" width="448"><g></g><g transform="matrix(1,0,0,1,141.96827474865717,90)"><svg viewBox="0 0 164.0634505026857 180" height="180" width="164.0634505026857"><g><svg viewBox="0 0 178.88760000000002 196.26411550738962" height="180" width="164.0634505026857"><g><svg viewBox="0 0 178.88760000000002 196.26411550738962" height="196.26411550738962" width="178.88760000000002"><g id="SvgjsG1351"><svg viewBox="0 0 178.88760000000002 196.26411550738962" height="196.26411550738962" width="178.88760000000002" id="SvgjsSvg1350"><g><svg viewBox="0 0 178.88760000000002 178.88760000000002" height="178.88760000000002" width="178.88760000000002"><g transform="matrix(1,0,0,1,47.27958832327113,47.27958832327113)"><svg viewBox="0 0 84.32842335345777 84.32842335345777" height="84.32842335345777" width="84.32842335345777"><g><svg xmlns="http://www.w3.org/2000/svg" xmlns:xlink="http://www.w3.org/1999/xlink" version="1.1" x="0" y="0" viewBox="0 0 100 100" style="enable-background:new 0 0 100 100;" xml:space="preserve" height="84.32842335345777" width="84.32842335345777" class="icon-kg-0" data-fill-palette-color="accent" id="SvgjsSvg1349"><path d="M87.5 75c-3.039 0-5.725 1.221-7.886 3.016l-19.056-13.6c1.209-2.49 1.941-5.225 1.941-8.166 0-4.041-1.318-7.775-3.491-10.828l22.29-22.302C83.154 24.207 85.193 25 87.5 25c6.909 0 12.5-5.591 12.5-12.5S94.409 0 87.5 0 75 5.591 75 12.5c0 2.307 0.793 4.346 1.88 6.201L54.59 41.004c-3.076-2.197-6.787-3.504-10.84-3.504-7.153 0-13.306 4.064-16.467 9.973l-15.052-5.029C11.621 39.637 9.24 37.5 6.25 37.5 2.795 37.5 0 40.295 0 43.75S2.795 50 6.25 50c1.574 0 2.979-0.635 4.077-1.6l14.966 4.993C25.146 54.334 25 55.273 25 56.25 25 66.602 33.398 75 43.75 75c5.151 0 9.826-2.088 13.221-5.457l18.933 13.514C75.366 84.448 75 85.926 75 87.5c0 6.896 5.591 12.5 12.5 12.5S100 94.396 100 87.5 94.409 75 87.5 75z" fill="white"></path></svg></g></svg></g><g></g></svg></g><g transform="matrix(1,0,0,1,44.721900000000005,189.1086115073896)"><svg viewBox="0 0 89.44380000000001 7.155504" height="7.155504" width="89.44380000000001"><g transform="matrix(1,0,0,1,0,0)"><svg width="89.44380000000001" viewBox="2.05 -35.5 449.94 36" height="7.155504" data-palette-color="url(#5ca80ea9-32a9-45db-b964-d8a45e3dc79e)"></svg></g></svg></g></svg></g></svg></g><g></g></svg></g></svg></g></svg></g><defs><mask></mask></defs><mask><g id="SvgjsG1348"><svg viewBox="0 0 448 360" height="360" width="448"><g><svg></svg></g><g><svg viewBox="0 0 448 360" height="360" width="448"><g></g><g transform="matrix(1,0,0,1,141.96827474865717,90)"><svg viewBox="0 0 164.0634505026857 180" height="180" width="164.0634505026857"><g><svg viewBox="0 0 178.88760000000002 196.26411550738962" height="180" width="164.0634505026857"><g><svg viewBox="0 0 178.88760000000002 196.26411550738962" height="196.26411550738962" width="178.88760000000002"><g id="SvgjsG1347"><svg viewBox="0 0 178.88760000000002 196.26411550738962" height="196.26411550738962" width="178.88760000000002" id="SvgjsSvg1346"><g><svg viewBox="0 0 178.88760000000002 178.88760000000002" height="178.88760000000002" width="178.88760000000002"><g transform="matrix(1,0,0,1,47.27958832327113,47.27958832327113)"><svg viewBox="0 0 84.32842335345777 84.32842335345777" height="84.32842335345777" width="84.32842335345777"><g><svg xmlns="http://www.w3.org/2000/svg" xmlns:xlink="http://www.w3.org/1999/xlink" version="1.1" x="0" y="0" viewBox="0 0 100 100" style="enable-background:new 0 0 100 100;" xml:space="preserve" height="84.32842335345777" width="84.32842335345777" class="icon-kg-0" data-fill-palette-color="accent" id="SvgjsSvg1345"></svg></g></svg></g><g></g></svg></g><g transform="matrix(1,0,0,1,44.721900000000005,189.1086115073896)"><svg viewBox="0 0 89.44380000000001 7.155504" height="7.155504" width="89.44380000000001"><g transform="matrix(1,0,0,1,0,0)"><svg width="89.44380000000001" viewBox="2.05 -35.5 449.94 36" height="7.155504" data-palette-color="url(#5ca80ea9-32a9-45db-b964-d8a45e3dc79e)"></svg></g></svg></g></svg></g></svg></g><g></g></svg></g></svg></g></svg></g><defs><mask></mask></defs></svg></g></mask><mask><g id="SvgjsG1344"><svg viewBox="0 0 448 360" height="360" width="448"><g><svg></svg></g><g><svg viewBox="0 0 448 360" height="360" width="448"><g></g><g transform="matrix(1,0,0,1,141.96827474865717,90)"><svg viewBox="0 0 164.0634505026857 180" height="180" width="164.0634505026857"><g><svg viewBox="0 0 178.88760000000002 196.26411550738962" height="180" width="164.0634505026857"><g><svg viewBox="0 0 178.88760000000002 196.26411550738962" height="196.26411550738962" width="178.88760000000002"><g id="SvgjsG1343"><svg viewBox="0 0 178.88760000000002 196.26411550738962" height="196.26411550738962" width="178.88760000000002" id="SvgjsSvg1342"><g><svg viewBox="0 0 178.88760000000002 178.88760000000002" height="178.88760000000002" width="178.88760000000002"><g transform="matrix(1,0,0,1,47.27958832327113,47.27958832327113)"><svg viewBox="0 0 84.32842335345777 84.32842335345777" height="84.32842335345777" width="84.32842335345777"><g><svg xmlns="http://www.w3.org/2000/svg" xmlns:xlink="http://www.w3.org/1999/xlink" version="1.1" x="0" y="0" viewBox="0 0 100 100" style="enable-background:new 0 0 100 100;" xml:space="preserve" height="84.32842335345777" width="84.32842335345777" class="icon-kg-0" data-fill-palette-color="accent" id="SvgjsSvg1341"></svg></g></svg></g><g></g></svg></g><g transform="matrix(1,0,0,1,44.721900000000005,189.1086115073896)"><svg viewBox="0 0 89.44380000000001 7.155504" height="7.155504" width="89.44380000000001"><g transform="matrix(1,0,0,1,0,0)"><svg width="89.44380000000001" viewBox="2.05 -35.5 449.94 36" height="7.155504" data-palette-color="url(#5ca80ea9-32a9-45db-b964-d8a45e3dc79e)"></svg></g></svg></g></svg></g></svg></g><g></g></svg></g></svg></g></svg></g><defs><mask></mask></defs><mask><g id="SvgjsG1339"><svg viewBox="0 0 448 360" height="360" width="448"><g><svg></svg></g><g><svg viewBox="0 0 448 360" height="360" width="448"><g></g><g transform="matrix(1,0,0,1,141.96827474865717,90)"><svg viewBox="0 0 164.0634505026857 180" height="180" width="164.0634505026857"><g><svg viewBox="0 0 178.88760000000002 196.26411550738962" height="180" width="164.0634505026857"><g><svg viewBox="0 0 178.88760000000002 196.26411550738962" height="196.26411550738962" width="178.88760000000002"><g id="SvgjsG1338"><svg viewBox="0 0 178.88760000000002 196.26411550738962" height="196.26411550738962" width="178.88760000000002" id="SvgjsSvg1337"><g><svg viewBox="0 0 178.88760000000002 178.88760000000002" height="178.88760000000002" width="178.88760000000002"><g transform="matrix(1,0,0,1,47.27958832327113,47.27958832327113)"><svg viewBox="0 0 84.32842335345777 84.32842335345777" height="84.32842335345777" width="84.32842335345777"><g><svg xmlns="http://www.w3.org/2000/svg" xmlns:xlink="http://www.w3.org/1999/xlink" version="1.1" x="0" y="0" viewBox="0 0 100 100" style="enable-background:new 0 0 100 100;" xml:space="preserve" height="84.32842335345777" width="84.32842335345777" class="icon-kg-0" data-fill-palette-color="accent" id="SvgjsSvg1336"></svg></g></svg></g><g></g></svg></g><g transform="matrix(1,0,0,1,44.721900000000005,189.1086115073896)"><svg viewBox="0 0 89.44380000000001 7.155504" height="7.155504" width="89.44380000000001"><g transform="matrix(1,0,0,1,0,0)"><svg width="89.44380000000001" viewBox="2.05 -35.5 449.94 36" height="7.155504" data-palette-color="url(#5ca80ea9-32a9-45db-b964-d8a45e3dc79e)"></svg></g></svg></g></svg></g></svg></g><g></g></svg></g></svg></g></svg></g><defs><mask></mask></defs></svg></g></mask></svg></g></mask></svg></g></mask><linearGradient x1="0.054" x2="0.941" y1="0.5" y2="0.5" id="47945f65-55bb-420b-8f5c-6f255e3dd946"><stop stop-color="#0f3054" offset="0"></stop><stop stop-color="#3b8dcb" offset="0.498"></stop><stop stop-color="#0f3054" offset="1"></stop></linearGradient><rect width="448" height="360.2380828009308" fill="url(#47945f65-55bb-420b-8f5c-6f255e3dd946)" mask="url(#0b24f243-cc8c-4379-81c8-272cce351483)" data-fill-palette-color="accent"></rect><mask id="ca970dc8-d21c-4b00-ae4a-6d93ce188410"><g id="SvgjsG1385"><svg viewBox="0 0 448 360" height="360" width="448"><g><svg></svg></g><g><svg viewBox="0 0 448 360" height="360" width="448"><g><path transform="translate(36.9151,-7.08178) scale(0.00624,0.00624)" d="M25167 8301c221 0 400 179 400 400 0 221-179 400-400 400h-3824l-2753 2753c-156 156-409 156-566 0-156-156-156-409 0-566l2188-2188h-6475c-1847 0-3071 431-3819 1301-760 885-1068 2254-1068 4110 0 11 0 22-1 33l34 5884 2356-2356c156-156 409-156 566 0 156 156 156 409 0 566l-2915 2915c33 5746 31 11443-2 17189 4087 4041 8117 8068 12157 12154h4070c221 0 400 179 400 400 0 221-179 400-400 400h-3279l4160 4208 1-1c1313 1313 2498 2062 3660 2151 1146 87 2316-474 3622-1779l4579-4579h-3323c-221 0-400-179-400-400 0-221 179-400 400-400h4123l2666-2666c156-156 409-156 566 0 156 156 156 409 0 566l-2101 2101h6475c1847 0 3071-431 3819-1301 760-885 1068-2254 1068-4110h2l-34-5917-2568 2568c-156 156-409 156-566 0-156-156-156-409 0-566l3127-3127c-33-5746-31-11443 2-17189-4087-4041-8117-8068-12157-12154h-4193c-221 0-400-179-400-400 0-221 179-400 400-400h3402l-4141-4189c-7-6-13-12-20-18-1313-1313-2498-2062-3660-2151-1146-87-2316 474-3622 1779l-4579 4579h3024zM13737 8301h7275l5144-5144c1483-1483 2856-2116 4247-2010 1374 104 2719 934 4167 2382 8 8 15 15 22 23l4695 4749h6977c2096 0 3515 524 4425 1583 898 1045 1261 2582 1261 4629 0 13-1 25-2 37l-36 6373 4559 4508 1-1c1448 1448 2278 2792 2382 4167 106 1391-528 2764-2010 4247l-4934 4934 38 6710h2c0 2047-364 3584-1261 4629-910 1059-2329 1583-4425 1583h-7275l-5144 5144c-1483 1483-2856 2116-4247 2010-1374-104-2719-934-4167-2382l1-1-4718-4772h-6977c-2096 0-3515-524-4425-1583-898-1045-1261-2582-1261-4629h2l37-6410-4537-4485c-8-7-16-14-23-22-1448-1448-2278-2792-2382-4167-106-1391 528-2764 2010-4247l4934-4934-38-6672c-1-12-2-25-2-37 0-2047 364-3584 1261-4629 910-1059 2329-1583 4425-1583zM8141 30000l-44-7653-4374 4374c-1305 1305-1866 2476-1779 3622 88 1162 838 2348 2151 3660 6 6 13 13 18 20l3983 3937 45-7961zM8882 39860l-32 5627h2c0 1857 308 3226 1068 4110 748 871 1972 1301 3819 1301h6186l-5380-5442-5662-5597zM46264 9101h-6186l5380 5442 5662 5597 32-5594c-1-11-1-22-1-33 0-1857-308-3226-1068-4110-748-871-1972-1301-3819-1301zM51906 22039l-45 7961 44 7653 4374-4374c1305-1305 1866-2476 1779-3622-88-1163-838-2348-2151-3660l1-1-4002-3956z" fill="white" fill-rule="nonzero" stroke="none" stroke-width="1" stroke-linecap="butt" stroke-linejoin="miter" stroke-miterlimit="10" stroke-dasharray="" stroke-dashoffset="0" font-family="none" font-weight="none" font-size="none" text-anchor="none" style="mix-blend-mode: normal"></path></g><g transform="matrix(1,0,0,1,141.96827474865717,90)"><svg viewBox="0 0 164.0634505026857 180" height="180" width="164.0634505026857"><g><svg viewBox="0 0 178.88760000000002 196.26411550738962" height="180" width="164.0634505026857"><g><svg viewBox="0 0 178.88760000000002 196.26411550738962" height="196.26411550738962" width="178.88760000000002"><g id="SvgjsG1384"><svg viewBox="0 0 178.88760000000002 196.26411550738962" height="196.26411550738962" width="178.88760000000002" id="SvgjsSvg1383"><g><svg viewBox="0 0 178.88760000000002 178.88760000000002" height="178.88760000000002" width="178.88760000000002"><g transform="matrix(1,0,0,1,47.27958832327113,47.27958832327113)"><svg viewBox="0 0 84.32842335345777 84.32842335345777" height="84.32842335345777" width="84.32842335345777"><g><svg xmlns="http://www.w3.org/2000/svg" xmlns:xlink="http://www.w3.org/1999/xlink" version="1.1" x="0" y="0" viewBox="0 0 100 100" style="enable-background:new 0 0 100 100;" xml:space="preserve" height="84.32842335345777" width="84.32842335345777" class="icon-kg-0" data-fill-palette-color="accent" id="SvgjsSvg1382"></svg></g></svg></g><g></g></svg></g><g transform="matrix(1,0,0,1,44.721900000000005,189.1086115073896)"><svg viewBox="0 0 89.44380000000001 7.155504" height="7.155504" width="89.44380000000001"><g transform="matrix(1,0,0,1,0,0)"><svg width="89.44380000000001" viewBox="2.05 -35.5 449.94 36" height="7.155504" data-palette-color="url(#5ca80ea9-32a9-45db-b964-d8a45e3dc79e)"></svg></g></svg></g></svg></g></svg></g><g></g></svg></g></svg></g></svg></g><defs><mask></mask></defs><mask><g id="SvgjsG1381"><svg viewBox="0 0 448 360" height="360" width="448"><g><svg></svg></g><g><svg viewBox="0 0 448 360" height="360" width="448"><g></g><g transform="matrix(1,0,0,1,141.96827474865717,90)"><svg viewBox="0 0 164.0634505026857 180" height="180" width="164.0634505026857"><g><svg viewBox="0 0 178.88760000000002 196.26411550738962" height="180" width="164.0634505026857"><g><svg viewBox="0 0 178.88760000000002 196.26411550738962" height="196.26411550738962" width="178.88760000000002"><g id="SvgjsG1380"><svg viewBox="0 0 178.88760000000002 196.26411550738962" height="196.26411550738962" width="178.88760000000002" id="SvgjsSvg1379"><g><svg viewBox="0 0 178.88760000000002 178.88760000000002" height="178.88760000000002" width="178.88760000000002"><g transform="matrix(1,0,0,1,47.27958832327113,47.27958832327113)"><svg viewBox="0 0 84.32842335345777 84.32842335345777" height="84.32842335345777" width="84.32842335345777"><g><svg xmlns="http://www.w3.org/2000/svg" xmlns:xlink="http://www.w3.org/1999/xlink" version="1.1" x="0" y="0" viewBox="0 0 100 100" style="enable-background:new 0 0 100 100;" xml:space="preserve" height="84.32842335345777" width="84.32842335345777" class="icon-kg-0" data-fill-palette-color="accent" id="SvgjsSvg1378"></svg></g></svg></g><g></g></svg></g><g transform="matrix(1,0,0,1,44.721900000000005,189.1086115073896)"><svg viewBox="0 0 89.44380000000001 7.155504" height="7.155504" width="89.44380000000001"><g transform="matrix(1,0,0,1,0,0)"><svg width="89.44380000000001" viewBox="2.05 -35.5 449.94 36" height="7.155504" data-palette-color="url(#5ca80ea9-32a9-45db-b964-d8a45e3dc79e)"></svg></g></svg></g></svg></g></svg></g><g></g></svg></g></svg></g></svg></g><defs><mask></mask></defs></svg></g></mask><mask><g id="SvgjsG1377"><svg viewBox="0 0 448 360" height="360" width="448"><g><svg></svg></g><g><svg viewBox="0 0 448 360" height="360" width="448"><g></g><g transform="matrix(1,0,0,1,141.96827474865717,90)"><svg viewBox="0 0 164.0634505026857 180" height="180" width="164.0634505026857"><g><svg viewBox="0 0 178.88760000000002 196.26411550738962" height="180" width="164.0634505026857"><g><svg viewBox="0 0 178.88760000000002 196.26411550738962" height="196.26411550738962" width="178.88760000000002"><g id="SvgjsG1376"><svg viewBox="0 0 178.88760000000002 196.26411550738962" height="196.26411550738962" width="178.88760000000002" id="SvgjsSvg1375"><g><svg viewBox="0 0 178.88760000000002 178.88760000000002" height="178.88760000000002" width="178.88760000000002"><g transform="matrix(1,0,0,1,47.27958832327113,47.27958832327113)"><svg viewBox="0 0 84.32842335345777 84.32842335345777" height="84.32842335345777" width="84.32842335345777"><g><svg xmlns="http://www.w3.org/2000/svg" xmlns:xlink="http://www.w3.org/1999/xlink" version="1.1" x="0" y="0" viewBox="0 0 100 100" style="enable-background:new 0 0 100 100;" xml:space="preserve" height="84.32842335345777" width="84.32842335345777" class="icon-kg-0" data-fill-palette-color="accent" id="SvgjsSvg1374"></svg></g></svg></g><g></g></svg></g><g transform="matrix(1,0,0,1,44.721900000000005,189.1086115073896)"><svg viewBox="0 0 89.44380000000001 7.155504" height="7.155504" width="89.44380000000001"><g transform="matrix(1,0,0,1,0,0)"><svg width="89.44380000000001" viewBox="2.05 -35.5 449.94 36" height="7.155504" data-palette-color="url(#5ca80ea9-32a9-45db-b964-d8a45e3dc79e)"></svg></g></svg></g></svg></g></svg></g><g></g></svg></g></svg></g></svg></g><defs><mask></mask></defs><mask><g id="SvgjsG1372"><svg viewBox="0 0 448 360" height="360" width="448"><g><svg></svg></g><g><svg viewBox="0 0 448 360" height="360" width="448"><g></g><g transform="matrix(1,0,0,1,141.96827474865717,90)"><svg viewBox="0 0 164.0634505026857 180" height="180" width="164.0634505026857"><g><svg viewBox="0 0 178.88760000000002 196.26411550738962" height="180" width="164.0634505026857"><g><svg viewBox="0 0 178.88760000000002 196.26411550738962" height="196.26411550738962" width="178.88760000000002"><g id="SvgjsG1371"><svg viewBox="0 0 178.88760000000002 196.26411550738962" height="196.26411550738962" width="178.88760000000002" id="SvgjsSvg1370"><g><svg viewBox="0 0 178.88760000000002 178.88760000000002" height="178.88760000000002" width="178.88760000000002"><g transform="matrix(1,0,0,1,47.27958832327113,47.27958832327113)"><svg viewBox="0 0 84.32842335345777 84.32842335345777" height="84.32842335345777" width="84.32842335345777"><g><svg xmlns="http://www.w3.org/2000/svg" xmlns:xlink="http://www.w3.org/1999/xlink" version="1.1" x="0" y="0" viewBox="0 0 100 100" style="enable-background:new 0 0 100 100;" xml:space="preserve" height="84.32842335345777" width="84.32842335345777" class="icon-kg-0" data-fill-palette-color="accent" id="SvgjsSvg1369"></svg></g></svg></g><g></g></svg></g><g transform="matrix(1,0,0,1,44.721900000000005,189.1086115073896)"><svg viewBox="0 0 89.44380000000001 7.155504" height="7.155504" width="89.44380000000001"><g transform="matrix(1,0,0,1,0,0)"><svg width="89.44380000000001" viewBox="2.05 -35.5 449.94 36" height="7.155504" data-palette-color="url(#5ca80ea9-32a9-45db-b964-d8a45e3dc79e)"></svg></g></svg></g></svg></g></svg></g><g></g></svg></g></svg></g></svg></g><defs><mask></mask></defs></svg></g></mask></svg></g></mask><mask><g id="SvgjsG1368"><svg viewBox="0 0 448 360" height="360" width="448"><g><svg></svg></g><g><svg viewBox="0 0 448 360" height="360" width="448"><g></g><g transform="matrix(1,0,0,1,141.96827474865717,90)"><svg viewBox="0 0 164.0634505026857 180" height="180" width="164.0634505026857"><g><svg viewBox="0 0 178.88760000000002 196.26411550738962" height="180" width="164.0634505026857"><g><svg viewBox="0 0 178.88760000000002 196.26411550738962" height="196.26411550738962" width="178.88760000000002"><g id="SvgjsG1367"><svg viewBox="0 0 178.88760000000002 196.26411550738962" height="196.26411550738962" width="178.88760000000002" id="SvgjsSvg1366"><g><svg viewBox="0 0 178.88760000000002 178.88760000000002" height="178.88760000000002" width="178.88760000000002"><g transform="matrix(1,0,0,1,47.27958832327113,47.27958832327113)"><svg viewBox="0 0 84.32842335345777 84.32842335345777" height="84.32842335345777" width="84.32842335345777"><g><svg xmlns="http://www.w3.org/2000/svg" xmlns:xlink="http://www.w3.org/1999/xlink" version="1.1" x="0" y="0" viewBox="0 0 100 100" style="enable-background:new 0 0 100 100;" xml:space="preserve" height="84.32842335345777" width="84.32842335345777" class="icon-kg-0" data-fill-palette-color="accent" id="SvgjsSvg1365"></svg></g></svg></g><g></g></svg></g><g transform="matrix(1,0,0,1,44.721900000000005,189.1086115073896)"><svg viewBox="0 0 89.44380000000001 7.155504" height="7.155504" width="89.44380000000001"><g transform="matrix(1,0,0,1,0,0)"><svg width="89.44380000000001" viewBox="2.05 -35.5 449.94 36" height="7.155504" data-palette-color="url(#5ca80ea9-32a9-45db-b964-d8a45e3dc79e)"></svg></g></svg></g></svg></g></svg></g><g></g></svg></g></svg></g></svg></g><defs><mask></mask></defs><mask><g id="SvgjsG1364"><svg viewBox="0 0 448 360" height="360" width="448"><g><svg></svg></g><g><svg viewBox="0 0 448 360" height="360" width="448"><g></g><g transform="matrix(1,0,0,1,141.96827474865717,90)"><svg viewBox="0 0 164.0634505026857 180" height="180" width="164.0634505026857"><g><svg viewBox="0 0 178.88760000000002 196.26411550738962" height="180" width="164.0634505026857"><g><svg viewBox="0 0 178.88760000000002 196.26411550738962" height="196.26411550738962" width="178.88760000000002"><g id="SvgjsG1363"><svg viewBox="0 0 178.88760000000002 196.26411550738962" height="196.26411550738962" width="178.88760000000002" id="SvgjsSvg1362"><g><svg viewBox="0 0 178.88760000000002 178.88760000000002" height="178.88760000000002" width="178.88760000000002"><g transform="matrix(1,0,0,1,47.27958832327113,47.27958832327113)"><svg viewBox="0 0 84.32842335345777 84.32842335345777" height="84.32842335345777" width="84.32842335345777"><g><svg xmlns="http://www.w3.org/2000/svg" xmlns:xlink="http://www.w3.org/1999/xlink" version="1.1" x="0" y="0" viewBox="0 0 100 100" style="enable-background:new 0 0 100 100;" xml:space="preserve" height="84.32842335345777" width="84.32842335345777" class="icon-kg-0" data-fill-palette-color="accent" id="SvgjsSvg1361"></svg></g></svg></g><g></g></svg></g><g transform="matrix(1,0,0,1,44.721900000000005,189.1086115073896)"><svg viewBox="0 0 89.44380000000001 7.155504" height="7.155504" width="89.44380000000001"><g transform="matrix(1,0,0,1,0,0)"><svg width="89.44380000000001" viewBox="2.05 -35.5 449.94 36" height="7.155504" data-palette-color="url(#5ca80ea9-32a9-45db-b964-d8a45e3dc79e)"></svg></g></svg></g></svg></g></svg></g><g></g></svg></g></svg></g></svg></g><defs><mask></mask></defs></svg></g></mask><mask><g id="SvgjsG1360"><svg viewBox="0 0 448 360" height="360" width="448"><g><svg></svg></g><g><svg viewBox="0 0 448 360" height="360" width="448"><g></g><g transform="matrix(1,0,0,1,141.96827474865717,90)"><svg viewBox="0 0 164.0634505026857 180" height="180" width="164.0634505026857"><g><svg viewBox="0 0 178.88760000000002 196.26411550738962" height="180" width="164.0634505026857"><g><svg viewBox="0 0 178.88760000000002 196.26411550738962" height="196.26411550738962" width="178.88760000000002"><g id="SvgjsG1359"><svg viewBox="0 0 178.88760000000002 196.26411550738962" height="196.26411550738962" width="178.88760000000002" id="SvgjsSvg1358"><g><svg viewBox="0 0 178.88760000000002 178.88760000000002" height="178.88760000000002" width="178.88760000000002"><g transform="matrix(1,0,0,1,47.27958832327113,47.27958832327113)"><svg viewBox="0 0 84.32842335345777 84.32842335345777" height="84.32842335345777" width="84.32842335345777"><g><svg xmlns="http://www.w3.org/2000/svg" xmlns:xlink="http://www.w3.org/1999/xlink" version="1.1" x="0" y="0" viewBox="0 0 100 100" style="enable-background:new 0 0 100 100;" xml:space="preserve" height="84.32842335345777" width="84.32842335345777" class="icon-kg-0" data-fill-palette-color="accent" id="SvgjsSvg1357"></svg></g></svg></g><g></g></svg></g><g transform="matrix(1,0,0,1,44.721900000000005,189.1086115073896)"><svg viewBox="0 0 89.44380000000001 7.155504" height="7.155504" width="89.44380000000001"><g transform="matrix(1,0,0,1,0,0)"><svg width="89.44380000000001" viewBox="2.05 -35.5 449.94 36" height="7.155504" data-palette-color="url(#5ca80ea9-32a9-45db-b964-d8a45e3dc79e)"></svg></g></svg></g></svg></g></svg></g><g></g></svg></g></svg></g></svg></g><defs><mask></mask></defs><mask><g id="SvgjsG1356"><svg viewBox="0 0 448 360" height="360" width="448"><g><svg></svg></g><g><svg viewBox="0 0 448 360" height="360" width="448"><g></g><g transform="matrix(1,0,0,1,141.96827474865717,90)"><svg viewBox="0 0 164.0634505026857 180" height="180" width="164.0634505026857"><g><svg viewBox="0 0 178.88760000000002 196.26411550738962" height="180" width="164.0634505026857"><g><svg viewBox="0 0 178.88760000000002 196.26411550738962" height="196.26411550738962" width="178.88760000000002"><g id="SvgjsG1355"><svg viewBox="0 0 178.88760000000002 196.26411550738962" height="196.26411550738962" width="178.88760000000002" id="SvgjsSvg1354"><g><svg viewBox="0 0 178.88760000000002 178.88760000000002" height="178.88760000000002" width="178.88760000000002"><g transform="matrix(1,0,0,1,47.27958832327113,47.27958832327113)"><svg viewBox="0 0 84.32842335345777 84.32842335345777" height="84.32842335345777" width="84.32842335345777"><g><svg xmlns="http://www.w3.org/2000/svg" xmlns:xlink="http://www.w3.org/1999/xlink" version="1.1" x="0" y="0" viewBox="0 0 100 100" style="enable-background:new 0 0 100 100;" xml:space="preserve" height="84.32842335345777" width="84.32842335345777" class="icon-kg-0" data-fill-palette-color="accent" id="SvgjsSvg1353"></svg></g></svg></g><g></g></svg></g><g transform="matrix(1,0,0,1,44.721900000000005,189.1086115073896)"><svg viewBox="0 0 89.44380000000001 7.155504" height="7.155504" width="89.44380000000001"><g transform="matrix(1,0,0,1,0,0)"><svg width="89.44380000000001" viewBox="2.05 -35.5 449.94 36" height="7.155504" data-palette-color="url(#5ca80ea9-32a9-45db-b964-d8a45e3dc79e)"></svg></g></svg></g></svg></g></svg></g><g></g></svg></g></svg></g></svg></g><defs><mask></mask></defs></svg></g></mask></svg></g></mask></svg></g></mask></svg></g></mask><linearGradient x1="0.054" x2="0.941" y1="0.5" y2="0.5" id="6f49c259-af4e-4ffb-9e25-4a235eede56f"><stop stop-color="#0f3054" offset="0"></stop><stop stop-color="#3b8dcb" offset="0.498"></stop><stop stop-color="#0f3054" offset="1"></stop></linearGradient></svg><rect width="448" height="360" fill="none" stroke="none" visibility="hidden"></rect></g></svg></g></svg>